inDegrees=no
nColumns=24
nRows=24
DataType=double
version=3
OpenSimVersion=4.5
endheader
time	pelvis_tilt	pelvis_list	pelvis_rotation	pelvis_tz	pelvis_ty	pelvis_tx	hip_flexion_r	hip_adduction_r	hip_rotation_r	knee_angle_r	ankle_angle_r	subtalar_angle_r	mtp_angle_r	hip_flexion_l	hip_adduction_l	hip_rotation_l	knee_angle_l	ankle_angle_l	subtalar_angle_l	mtp_angle_l	lumbar_extension	lumbar_bending	lumbar_rotation
0.9399999999999999	0.002338827191985719	-0.0560442349002603	0.11540766724061	-0.04254457	0.9046625	0.89654251	0.1684414636124532	0.1202865332938942	-0.270820920351682	-0.3197523907640858	0.1850040191455938	-0.2020188713438679	0	0.3419742257896357	-0.144904120697133	-0.08467164250540127	-1.134222857639309	0.05397830444551049	-0.292550529418537	0	-0.1286151160281782	0.06047353259604166	-0.01726654246451283
0.9500000000000002	0.006359774481058037	-0.05288570483796224	0.1053519885253001	-0.04174365000000002	0.9059944600000001	0.90524479	0.1459776802249505	0.1202632654369713	-0.267715653061281	-0.3068461546279467	0.1884391768775007	-0.1820992371282377	0	0.3555469630245386	-0.1416138479824219	-0.09494425883075573	-1.112937368370042	0.06638119600295481	-0.2897183616501772	0	-0.1337827902009748	0.05749406043507697	-0.003983791161229996
0.96	0.005718844583372914	-0.05139757139149005	0.1023385467127637	-0.04108332000000001	0.9066776	0.913733	0.1294047359685034	0.1215076138096768	-0.2699470931618701	-0.2945398262038958	0.195347804238258	-0.1803874869638541	0	0.3763901870830807	-0.1379949868418267	-0.09820951539223219	-1.088924948926724	0.07120030802737458	-0.2902961221812551	0	-0.1333924816967525	0.05467497041880239	0.003024200935436029
0.9699999999999998	0.008034252517440169	-0.04574268612160485	0.09203788059837129	-0.04027004000000001	0.9076448300000001	0.92212202	0.1099930611566431	0.1182145665450538	-0.2638678291574337	-0.2839019012959917	0.1988971290179927	-0.1646631182990682	0	0.3885654955600466	-0.131266127870426	-0.1085281815317688	-1.057619925847485	0.07920693807759067	-0.2951295204237341	0	-0.13790737270964	0.04727491838000972	0.01506272150120489
0.98	0.007744383114308973	-0.04501238495149282	0.0892199784068901	-0.03993432000000002	0.9080322900000001	0.9304624499999999	0.09371328613783869	0.1197900616472609	-0.2640704667705122	-0.2721252424262762	0.2056212813599996	-0.1624828632949194	0	0.4072145271131653	-0.127650988120862	-0.1114852565805744	-1.026050790121057	0.08347058004347442	-0.2964187349283232	0	-0.1381909272774994	0.04577871742544507	0.02144359410834908
0.9899999999999998	0.007313316832545201	-0.04288690472060014	0.0843162522111148	-0.03950723	0.90834605	0.9387971199999999	0.07675397223622518	0.119934080457549	-0.2615759661072065	-0.2592456593876774	0.2101093128028964	-0.1573775258252859	0	0.4220798085918042	-0.1236414954156001	-0.1172484721752693	-0.9883177838093731	0.08764185290215731	-0.297207473651909	0	-0.1386493900163474	0.04250524978796968	0.02836622703822196
1	0.01332378635673242	-0.03513468265241291	0.07398985151637168	-0.03883982	0.909548	0.9472374299999999	0.0547136636701874	0.1139071515469971	-0.253496740832083	-0.2514685106380342	0.2116712065542428	-0.1461850715913126	0	0.4228599121243827	-0.1163449000371474	-0.1322466812458657	-0.9405130389699281	0.08689301886299038	-0.2929277842562178	0	-0.1471048440500844	0.03318331099005094	0.04016563592567128
1.01	0.01177614199594531	-0.03607123367756446	0.07049019700412555	-0.03872731000000001	0.9093062200000001	0.95543421	0.04092944366808986	0.1161412187171763	-0.2539051600943544	-0.2415164962864395	0.2185098362636184	-0.1444571760841506	0	0.4378802329458056	-0.1143895968550968	-0.1357535940011782	-0.8981474334990092	0.0899426078813247	-0.2905062559834709	0	-0.1465129768953273	0.03403526379381468	0.04519836769842184
1.02	0.01514590186265545	-0.03036292498228539	0.06198273096549005	-0.03832545000000001	0.9098204	0.96377567	0.02170155115379996	0.1110459310279086	-0.2503859061159011	-0.2329029429986739	0.2229356535254657	-0.1345568824705436	0	0.4393580301015396	-0.1081811334565182	-0.1475017045203187	-0.8443568776117942	0.09206082428454666	-0.2753362733532225	0	-0.1518223416091898	0.02693639484645827	0.05351676346946072
1.03	0.01735200841123794	-0.02897798823129579	0.05524398129440487	-0.03799395	0.90987905	0.97209264	0.00398062722836198	0.110562085616683	-0.2479029825705898	-0.2239504727755769	0.2298800044598859	-0.1263059995256304	0	0.4422078579839357	-0.106551482532951	-0.1579416516697143	-0.7895528304954961	0.09597740752867132	-0.2547039004272187	0	-0.1552609303093403	0.02472942461104804	0.06050409453297455
1.04	0.0143791369135151	-0.03209798132175383	0.05190324683403798	-0.03803049	0.9089939500000001	0.9801369999999999	-0.008467605190522349	0.1148146325245118	-0.2474374830132635	-0.2130876388061413	0.2373842652213932	-0.1237836629551505	0	0.4534289647646403	-0.1067407734387065	-0.161680214820794	-0.7368428810774863	0.09625144970304152	-0.2445973349014319	0	-0.1528797030852854	0.02765225263473803	0.06548839900403589
1.05	0.01601869380324415	-0.02856105376597323	0.04204370100986936	-0.03771285000000002	0.90885266	0.98850786	-0.02324117398029206	0.1106021227715921	-0.2454307985597647	-0.2091771420487172	0.2419528933511533	-0.1148804467962094	0	0.4504085251882752	-0.1045553899590837	-0.1804861834131923	-0.6725666322630494	0.09439993479388878	-0.2141919742482581	0	-0.1559550941786165	0.02317471533303463	0.07241019958638849
1.06	0.01652806659728123	-0.03035129212160471	0.03585804666322399	-0.03755030000000001	0.9081342600000001	0.9969169999999999	-0.0387263171712913	0.1127368494659391	-0.2437479904922353	-0.2011795688610555	0.2481461849516101	-0.1068772613278051	0	0.4510551831151743	-0.1067523577125507	-0.1960428299511189	-0.6109697671886477	0.09043567753218004	-0.1906708866314592	0	-0.1570381018718068	0.02459135842070685	0.07785723395178604
1.07	0.01602342725201826	-0.0322208658049055	0.02946587128215258	-0.03742101	0.90731202	1.00554616	-0.05363690111412664	0.114332049859	-0.2430406221599702	-0.1929927517169953	0.2532703372451131	-0.09761427643589313	0	0.4507894303820865	-0.1088811429570582	-0.2130473623665919	-0.5482431730041775	0.08646347465905158	-0.165163485346059	0	-0.1562314808537709	0.02592728264846822	0.08285061029523338
1.08	0.01257392212720652	-0.04206171032378276	0.02690287649062502	-0.03768812000000002	0.9055118	1.01362762	-0.06274981317217417	0.1244224127952089	-0.2457859266367874	-0.1886386615532854	0.2612176402379283	-0.09740549613651228	0	0.4592811134368376	-0.1159155232102839	-0.2177936730427195	-0.4945772205355855	0.08755773204646847	-0.1591186456921903	0	-0.1532885989969755	0.03704458771723965	0.08388665327264755
1.09	0.01134239502204307	-0.0374374620983014	0.01707041167305939	-0.03744534000000002	0.90473857	1.02270399	-0.07942816833412476	0.118565117845179	-0.2444400945239283	-0.1760347075424126	0.2655476483486191	-0.08109830182062618	0	0.4526664476932035	-0.1128657095680748	-0.2478896320235425	-0.4264332945225269	0.06802321223520659	-0.1174955563430791	0	-0.1511842827449822	0.03028316421812231	0.09038538744058013
1.1	0.01175601905756884	-0.03896598527945911	0.01007419481962118	-0.03754278	0.903467	1.031452	-0.09606592190168622	0.119123313409875	-0.244567298134071	-0.1672990436897946	0.2748498719073074	-0.06598437899141892	0	0.4489766200689589	-0.1136686922727519	-0.2683846346219778	-0.3668534150094023	0.06133110710532608	-0.07819600619932249	0	-0.1516669046804022	0.03141654804764456	0.0955632466567596
1.11	0.007540041007189509	-0.04851748637453106	0.007364493849213724	-0.03788775	0.90137786	1.03963529	-0.1040335014316194	0.1284061664318599	-0.2475027031748838	-0.1639915454480309	0.2821111179106889	-0.06562512739950542	0	0.4559582899825109	-0.1198928049915356	-0.2713210313588715	-0.3197019109551962	0.06364317024725005	-0.06849512849552775	0	-0.1476665199758418	0.04205534509657589	0.09612466828804495
1.12	0.004300169276984749	-0.04424205334311443	-0.0007271838042390826	-0.03826727000000002	0.90004412	1.04889985	-0.1157701222737612	0.1212016373459829	-0.2510120208193726	-0.1576415196155536	0.2885890114510893	-0.04777080813387043	0	0.4522623111198506	-0.113499688201557	-0.2988390861510225	-0.2599264952246537	0.04098504532020235	-0.006081637477686085	0	-0.1431396090549288	0.03691422052329485	0.09968937866873478
1.13	0.003996484198151696	-0.04439612924782807	-0.00815402895328322	-0.0386582	0.89839104	1.05755997	-0.1276780693476676	0.1185027903922611	-0.2528186109535789	-0.1573049213501334	0.3035291082134441	-0.03234807582252742	0	0.4512103811083872	-0.1115470928978408	-0.315832965774873	-0.2158346439317818	0.03817496329726316	0.03986855819770157	0	-0.1438161527782086	0.03603891015268459	0.1046618391609591
1.14	0.001706572101790276	-0.04726077742079729	-0.01388409500508933	-0.03924334000000002	0.89660629	1.06636119	-0.1367522139778369	0.1189793734884691	-0.2531983595176949	-0.1575475664475236	0.3105639099636842	-0.02378433335894916	0	0.4537588974431141	-0.1114270325712608	-0.3256529546952006	-0.1777455023135635	0.03149101060031873	0.07245474911554564	0	-0.1418175404725002	0.03911177331112717	0.1067427856288011
1.15	-0.00123489498175752	-0.05259007142121968	-0.01897507789079872	-0.03992938000000001	0.89448589	1.07503275	-0.1447135303937494	0.1221679811233175	-0.2539084730783406	-0.1584342029577818	0.3169342643440913	-0.02314487962760348	0	0.4600301562173831	-0.1137821477498437	-0.326581538797767	-0.1503191511345696	0.03383735445221282	0.08080015385675914	0	-0.1396251988887485	0.04472438025587733	0.1066835749848613
1.16	-0.003140142047898003	-0.04911206554593527	-0.02870116544678143	-0.04033422	0.89297649	1.08415112	-0.1503297735574631	0.1139888849668022	-0.2511890345555707	-0.1673478816674569	0.3310458458056086	-0.01457939741982684	0	0.4596876835227666	-0.1103723616947401	-0.3426793340950525	-0.1197473752570803	0.01920566312827187	0.1307283008216996	0	-0.1381608863213482	0.03979182584433519	0.1123863344686623
1.17	-0.004919378688116329	-0.05243403510548288	-0.03425953573654517	-0.04096851000000001	0.8910839	1.09319638	-0.1583847507987558	0.1144393954619793	-0.2492863380406362	-0.1712130204592144	0.3347406366226471	-0.01303185812891355	0	0.4644010312125094	-0.1128389540197076	-0.3405438199081469	-0.1044008810218594	0.02352477951176563	0.1358501721444031	0	-0.137158923690106	0.04265124605630023	0.1121565594291763
